<svg id="visual" viewBox="0 0 960 540" width="960" height="540" xmlns="http://www.w3.org/2000/svg" xmlns:xlink="http://www.w3.org/1999/xlink" version="1.1"><rect x="0" y="0" width="960" height="540" fill="#001220"></rect><defs><linearGradient id="grad1_0" x1="43.8%" y1="0%" x2="100%" y2="100%"><stop offset="14.444444444444446%" stop-color="#001220" stop-opacity="1"></stop><stop offset="85.55555555555554%" stop-color="#001220" stop-opacity="1"></stop></linearGradient></defs><defs><linearGradient id="grad2_0" x1="0%" y1="0%" x2="56.3%" y2="100%"><stop offset="14.444444444444446%" stop-color="#001220" stop-opacity="1"></stop><stop offset="85.55555555555554%" stop-color="#001220" stop-opacity="1"></stop></linearGradient></defs><g transform="translate(960, 0)"><path d="M0 135C-11.3 124.6 -22.7 114.2 -35.8 110.3C-49 106.4 -64 109 -75.8 104.4C-87.6 99.7 -96.2 87.7 -105.2 76.4C-114.1 65.1 -123.4 54.4 -128.4 41.7C-133.4 29.1 -134.2 14.5 -135 0L0 0Z" fill="#CCCCCC"></path></g><g transform="translate(0, 540)"><path d="M0 -135C12 -124.6 24 -114.3 34.9 -107.5C45.8 -100.7 55.7 -97.4 68.2 -93.8C80.7 -90.3 95.9 -86.3 106.8 -77.6C117.7 -68.9 124.4 -55.4 128.4 -41.7C132.4 -28 133.7 -14 135 0L0 0Z" fill="#CCCCCC"></path></g></svg>